<svg version="1.0" xmlns="http://www.w3.org/2000/svg" width="24" height="24" viewBox="5.5 -3.5 64 64" fill="currentColor" stroke="currentColor" stroke-width="0" xml:space="preserve"><circle fill="none" cx="37.471" cy="28.424" r="28.553" stroke="none"/><path d="M37.443-3.5c8.988 0 16.58 3.096 22.77 9.286C66.404 11.976 69.5 19.547 69.5 28.5c0 8.954-3.049 16.437-9.145 22.456-6.437 6.363-14.076 9.544-22.912 9.544-8.687 0-16.182-3.144-22.486-9.43C8.651 44.784 5.5 37.262 5.5 28.5c0-8.761 3.144-16.342 9.429-22.742C21.101-.415 28.604-3.5 37.443-3.5zm.086 5.772c-7.257 0-13.401 2.553-18.428 7.657-5.22 5.296-7.829 11.486-7.829 18.572s2.59 13.22 7.771 18.398c5.181 5.182 11.352 7.771 18.514 7.771 7.162 0 13.371-2.607 18.629-7.828 5.029-4.877 7.543-10.991 7.543-18.343 0-7.314-2.553-13.504-7.656-18.571-5.106-5.104-11.288-7.656-18.544-7.656zM22.471 37.186V19.472h8.8c4.342 0 6.514 1.999 6.514 6 0 .686-.105 1.342-.314 1.972-.209.629-.572 1.256-1.086 1.886-.514.629-1.285 1.143-2.314 1.543-1.028.399-2.247.6-3.656.6h-3.486v5.714h-4.458zm4.4-14.401v5.372h3.771c.914 0 1.6-.258 2.058-.772.458-.513.687-1.152.687-1.915 0-1.79-.953-2.686-2.858-2.686h-3.657v.001zm12.113 14.401V19.472h6.859c2.818 0 5.027.724 6.629 2.171 1.598 1.448 2.398 3.677 2.398 6.686 0 3.01-.801 5.24-2.398 6.686-1.602 1.447-3.811 2.171-6.629 2.171h-6.859zm4.403-14v10.287h2.57c1.562 0 2.695-.466 3.4-1.401.705-.933 1.057-2.179 1.057-3.742 0-1.562-.352-2.809-1.057-3.743-.705-.933-1.857-1.399-3.457-1.399l-2.513-.002z" stroke="none"/></svg>