<svg id="Layer_1" data-name="Layer 1" xmlns="http://www.w3.org/2000/svg" viewBox="0 0 23.95 23.95"><defs><style>.cls-1,.cls-2{fill:none;}.cls-2{stroke:#000;stroke-linecap:round;stroke-linejoin:round;stroke-width:2px;}</style></defs><rect class="cls-1" width="23.95" height="23.95"/><path class="cls-2" d="M10.94,4.06h-7a2,2,0,0,0-2,2v14a2,2,0,0,0,2,2h14a2,2,0,0,0,2-2v-7" transform="translate(-0.02 -0.02)"/><path class="cls-2" d="M18.44,2.56a2.12,2.12,0,0,1,3,3L16.7,10.3l-4,1,1-4Z" transform="translate(-0.02 -0.02)"/><line class="cls-2" x1="5.55" y1="8.39" x2="9.48" y2="8.39"/><line class="cls-2" x1="5.55" y1="12.85" x2="9.97" y2="12.85"/><line class="cls-2" x1="5.55" y1="17.32" x2="15.95" y2="17.32"/></svg>