<?xml version="1.0" encoding="utf-8"?>
<!-- Generator: Adobe Illustrator 24.3.0, SVG Export Plug-In . SVG Version: 6.00 Build 0)  -->
<svg version="1.1" xmlns="http://www.w3.org/2000/svg" xmlns:xlink="http://www.w3.org/1999/xlink" x="0px" y="0px"
	 viewBox="0 0 24 24" style="enable-background:new 0 0 24 24;" xml:space="preserve">
<style type="text/css">
	.st0{fill:none;}
	.st1{fill:none;stroke:#000000;stroke-width:2;stroke-linecap:round;stroke-linejoin:round;}
</style>
<g id="Layer_1">
	<g id="Layer_2_1_">
		<rect class="st0" width="24" height="24"/>
	</g>
	<g>
		<path class="st1" d="M10.9,3.5H3.4c-0.6,0-1.1,0.2-1.5,0.6C1.4,4.5,1.2,5.1,1.2,5.6v15c0,0.6,0.2,1.1,0.6,1.5s0.9,0.6,1.5,0.6h15
			c0.6,0,1.1-0.2,1.5-0.6s0.6-0.9,0.6-1.5v-7.5"/>
		<path class="st1" d="M18.9,1.9c0.4-0.4,1-0.7,1.6-0.7s1.2,0.2,1.6,0.7c0.4,0.4,0.7,1,0.7,1.6s-0.2,1.2-0.7,1.6L11.9,15.3l-4.3,1.1
			l1.1-4.3L18.9,1.9z"/>
	</g>
</g>
<g id="Layer_2">
</g>
</svg>
