<?xml version="1.0" encoding="utf-8"?>
<!-- Generator: Adobe Illustrator 24.3.0, SVG Export Plug-In . SVG Version: 6.00 Build 0)  -->
<svg version="1.1" id="Layer_2" xmlns="http://www.w3.org/2000/svg" xmlns:xlink="http://www.w3.org/1999/xlink" x="0px" y="0px"
	 viewBox="0 0 24 24" style="enable-background:new 0 0 24 24;" xml:space="preserve">
<style type="text/css">
	.st0{fill:none;}
</style>
<g>
	<path d="M13.3,13.3l3.4,3.4c0.3,0.4,0.7,0.6,1.2,0.6c0.5,0,1.1-0.2,1.5-0.6l3.4-3.4c0.4-0.3,0.6-0.7,0.6-1.2c0-0.5-0.2-1.1-0.6-1.5
		l-3.4-3.5l0,0c-0.4-0.4-0.9-0.6-1.4-0.6c-0.5,0-1,0.2-1.4,0.6l-3.4,3.4c-0.4,0.3-0.6,0.7-0.6,1.2C12.6,12.4,12.8,12.9,13.3,13.3z"
		/>
	<path d="M8.4,15.4l-3-1.7l-3-1.7l3-1.7l3-1.7l0,3.4L8.4,15.4 M8.4,17.4c1,0,2-0.8,2-2l0-3.4l0-3.4c0-1.2-1-2-2-2
		c-0.3,0-0.7,0.1-1,0.3l-3,1.7l-3,1.7c-1.3,0.8-1.3,2.7,0,3.5l3,1.7l3,1.7C7.7,17.3,8.1,17.4,8.4,17.4L8.4,17.4z"/>
</g>
<g id="Layer_2_3_">
	<rect x="0" y="0" class="st0" width="24" height="24"/>
</g>
</svg>
