<?xml version="1.0" encoding="utf-8"?>
<!-- Generator: Adobe Illustrator 24.3.0, SVG Export Plug-In . SVG Version: 6.00 Build 0)  -->
<svg version="1.1" id="Layer_1" xmlns="http://www.w3.org/2000/svg" xmlns:xlink="http://www.w3.org/1999/xlink" x="0px" y="0px"
	 viewBox="0 0 24 24" style="enable-background:new 0 0 24 24;" xml:space="preserve">
<style type="text/css">
	.st0{fill:none;}
</style>
<g id="Layer_1_1_">
	<g id="Layer_2_2_">
	</g>
	<g id="Layer_2_3_">
		<rect class="st0" width="24" height="24"/>
	</g>
</g>
<g>
	<path d="M10.7,0.5l0.1,0c0.5,0,1,0.4,1.1,0.9c0,0.6-0.4,1-0.9,1.1l-0.1,0C8,2.8,5.9,5.1,5.9,8v8c0,3,2.5,5.5,5.5,5.5h1.2
		c3,0,5.5-2.5,5.5-5.5v-4c0-0.6,0.4-1,1-1s1,0.4,1,1v4c0,4.1-3.4,7.5-7.5,7.5h-1.2c-4.1,0-7.5-3.4-7.5-7.5V8
		C3.9,4.1,6.8,0.9,10.7,0.5z"/>
	<path d="M19.1,9h-4.2c-0.3,0-0.5-0.1-0.7-0.3C14,8.5,13.9,8.3,13.9,8l0-6.1c0-0.3,0.2-0.6,0.4-0.8C14.6,0.9,15,0.9,15.3,1
		c2.9,1.1,4.8,3.9,4.8,7C20.1,8.6,19.6,9,19.1,9z"/>
</g>
</svg>
