<?xml version="1.0" encoding="utf-8"?>
<!-- Generator: Adobe Illustrator 24.3.0, SVG Export Plug-In . SVG Version: 6.00 Build 0)  -->
<svg version="1.1" id="Layer_3" xmlns="http://www.w3.org/2000/svg" xmlns:xlink="http://www.w3.org/1999/xlink" x="0px" y="0px"
	 viewBox="0 0 24 24" style="enable-background:new 0 0 24 24;" xml:space="preserve">
<style type="text/css">
	.st0{fill:none;}
</style>
<g id="Layer_2_3_">
	<rect class="st0" width="24" height="24"/>
</g>
<g>
	<path d="M19.9,0.9c-0.3-0.5-0.9-0.6-1.4-0.2C18.1,1,18,1.6,18.3,2.1c1.2,1.7,1.8,3.7,1.8,5.8v8c0,0.6,0.4,1,1,1s1-0.4,1-1v-8
		C22.1,5.4,21.4,3,19.9,0.9z"/>
	<path d="M11.3,0.5l-0.1,0c-0.5,0-1,0.4-1.1,0.9c0,0.6,0.4,1,0.9,1.1l0.1,0c2.9,0.3,5,2.6,5,5.5v8c0,3-2.5,5.5-5.5,5.5H9.4
		c-3,0-5.5-2.5-5.5-5.5v-4c0-0.6-0.4-1-1-1s-1,0.4-1,1v4c0,4.1,3.4,7.5,7.5,7.5h1.2c4.1,0,7.5-3.4,7.5-7.5V8
		C18.1,4.1,15.2,0.9,11.3,0.5z"/>
	<path d="M2.9,9h4.2c0.3,0,0.5-0.1,0.7-0.3C8,8.5,8.1,8.3,8.1,8l0-6.1c0-0.3-0.2-0.6-0.4-0.8C7.4,0.9,7,0.9,6.7,1
		C3.8,2.1,1.9,4.9,1.9,8C1.9,8.6,2.4,9,2.9,9z"/>
</g>
</svg>
