<?xml version="1.0" ?><!DOCTYPE svg  PUBLIC '-//W3C//DTD SVG 1.1//EN'  'http://www.w3.org/Graphics/SVG/1.1/DTD/svg11.dtd'><svg enable-background="new 0 0 30 30" height="30px" id="Layer_1" version="1.1" viewBox="0 0 30 30" width="30px" xml:space="preserve" xmlns="http://www.w3.org/2000/svg" xmlns:xlink="http://www.w3.org/1999/xlink"><g><path clip-rule="evenodd" d="M25.019,20.877c0.646,0.277,0.914,0.816,1.034,1.438   c0.129,0.664,0.327,1.285,0.829,1.771c0.067,0.064,0.115,0.15,0.167,0.23c0.618,0.939,0.477,1.602-0.49,2.162   c-0.433,0.252-0.891,0.461-1.338,0.686c-0.674,0.338-1.265,0.771-1.765,1.348c-0.636,0.73-1.413,1.256-2.392,1.439   c-1.171,0.219-2.2-0.293-2.7-1.387c-0.107-0.234-0.228-0.305-0.48-0.318c-0.621-0.037-1.242-0.1-1.858-0.191   c-1.085-0.16-2.127,0.107-3.184,0.262c-0.418,0.061-0.709,0.199-0.986,0.555c-0.546,0.701-1.372,0.881-2.204,0.771   c-0.675-0.09-1.368-0.26-1.98-0.549c-0.892-0.418-1.815-0.611-2.775-0.715c-0.363-0.039-0.728-0.088-1.084-0.164   c-0.963-0.209-1.42-0.834-1.164-1.779c0.211-0.779,0.24-1.521,0.14-2.316c-0.143-1.135,0.201-1.668,1.328-1.988   c0.902-0.256,1.245-1.037,1.797-1.627c0.043-0.047,0.035-0.156,0.028-0.234c-0.157-1.541,0.303-2.947,0.949-4.307   c0.708-1.49,1.657-2.825,2.686-4.108c1.119-1.395,1.572-3,1.458-4.777c-0.085-1.338-0.199-2.678,0.123-4.006   c0.42-1.74,1.616-2.844,3.394-3.012c0.759-0.072,1.556-0.104,2.295,0.045c1.727,0.346,2.545,1.613,2.931,3.223   c0.303,1.264,0.342,2.553,0.286,3.84c-0.055,1.242,0.231,2.365,0.979,3.359c0.538,0.715,1.128,1.391,1.632,2.129   c0.632,0.928,1.274,1.86,1.775,2.86C25.284,17.18,25.602,18.84,25.019,20.877z M11.33,24.633c0.435,0.732,0.932,1.324,1.756,1.607   c1.837,0.633,3.51,0.25,5.096-0.74c0.177-0.109,0.36-0.332,0.396-0.527c0.168-0.943,0.287-1.896,0.422-2.848   c0.126-0.893,0.308-1.754,1.223-2.219c0.079-0.041,0.118-0.186,0.149-0.289c0.168-0.549,0.438-0.813,0.991-0.727   c1.104,0.172,2.2,0.418,2.577,1.764c0.226-0.375,0.112-0.697-0.124-0.938c-0.268-0.275-0.58-0.539-0.923-0.701   c-0.436-0.203-0.591-0.402-0.551-0.941c0.137-1.842-0.721-3.307-1.951-4.593c-0.026-0.027-0.074-0.035-0.112-0.051   c1.25,1.479,2.077,3.052,1.493,5.054c-0.656-0.049-0.665-0.047-0.724-0.334c-0.246-1.195-0.733-2.295-1.269-3.383   c-0.445-0.909-0.84-1.847-1.211-2.788c-0.325-0.824-0.586-1.678-0.868-2.496c-0.308,0.203-0.597,0.418-0.908,0.596   c-0.394,0.225-0.811,0.406-1.205,0.631c-0.997,0.566-1.807,0.49-2.679-0.26c-0.239-0.207-0.504-0.383-0.812-0.613   c-0.149,1.578-0.68,2.939-1.274,4.282c-0.269,0.607-0.542,1.211-0.823,1.811c-0.532,1.137-0.817,2.336-0.927,3.672   c-0.479-0.693-0.612-1.377-0.565-2.105c0.06-0.941,0.401-1.793,0.836-2.615c0.165-0.313,0.311-0.633,0.467-0.952   c-0.03-0.014-0.061-0.027-0.091-0.041C9.03,14.977,8.407,16.1,8.157,17.381c-0.326,1.668,0.228,2.766,1.679,3.627   c0.911,0.539,1.743,1.199,2.233,2.18C12.464,23.973,12.209,24.461,11.33,24.633z M9.412,28.713   c0.843-0.063,1.447-0.176,1.793-0.793c0.346-0.615,0.231-1.213-0.14-1.773c-0.234-0.355-0.507-0.686-0.743-1.041   c-0.442-0.668-0.875-1.344-1.302-2.021c-0.308-0.49-0.559-1.02-0.907-1.477c-0.517-0.68-1.411-0.99-2.092,0.072   c-0.37,0.578-0.86,0.943-1.52,1.143c-0.686,0.207-0.873,0.613-0.816,1.336c0.042,0.547,0.124,1.129-0.008,1.645   c-0.305,1.193-0.102,1.574,1.121,1.699c1.11,0.115,2.193,0.291,3.212,0.814C8.492,28.563,9.07,28.621,9.412,28.713z M20.69,20.959   c-0.163,0.207-0.37,0.383-0.459,0.607c-0.141,0.348-0.256,0.727-0.286,1.098c-0.096,1.156-0.208,2.303-0.6,3.404   c-0.08,0.225-0.126,0.461-0.169,0.695c-0.134,0.719-0.063,1.389,0.549,1.887c0.603,0.494,1.294,0.51,1.953,0.191   c0.484-0.232,0.974-0.537,1.335-0.928c0.64-0.693,1.384-1.195,2.225-1.588c0.323-0.15,0.642-0.32,0.936-0.52   c0.339-0.23,0.405-0.502,0.225-0.873c-0.119-0.242-0.266-0.484-0.448-0.684c-0.318-0.35-0.483-0.758-0.581-1.207   c-0.062-0.279-0.127-0.563-0.244-0.82c-0.278-0.621-1.081-0.758-1.628-0.359c-0.348,0.254-0.753,0.459-1.162,0.596   c-0.52,0.176-0.978-0.029-1.247-0.506C20.928,21.668,20.84,21.344,20.69,20.959z M14.408,10.479   c0.155-0.041,0.431-0.068,0.667-0.182c0.612-0.287,1.208-0.609,1.806-0.926c0.112-0.059,0.214-0.141,0.31-0.225   c0.642-0.572,0.539-1.207-0.244-1.553c-0.561-0.246-1.119-0.496-1.674-0.756c-0.73-0.338-1.436-0.357-2.099,0.15   c-0.427,0.326-0.844,0.666-1.26,1.006c-0.249,0.201-0.308,0.457-0.181,0.756c0.201,0.471,1.813,1.648,2.334,1.701   C14.142,10.46,14.218,10.464,14.408,10.479z M16.565,7.11c0.148,0.064,0.264,0.104,0.366,0.164   c0.337,0.201,0.564,0.066,0.626-0.268c0.091-0.498,0.213-1.018,0.148-1.508c-0.107-0.818-0.719-1.375-1.358-1.408   c-0.768-0.037-1.407,0.598-1.546,1.531c-0.107,0.717-0.088,0.744,0.611,0.908c0.075-0.299,0.104-0.621,0.243-0.885   c0.09-0.172,0.343-0.363,0.517-0.357c0.174,0.004,0.409,0.211,0.498,0.389C16.904,6.142,16.825,6.622,16.565,7.11z M21.253,20.459   c0.024,0.4,0.109,0.84,0.544,1.045c0.413,0.197,0.784-0.023,1.12-0.268c0.083-0.061,0.16-0.135,0.227-0.213   c0.239-0.275,0.236-0.604-0.064-0.811c-0.279-0.193-0.595-0.357-0.917-0.465C21.554,19.545,21.249,19.787,21.253,20.459z    M13.159,6.647c0.2-0.158,0.511-0.283,0.529-0.443c0.068-0.594-0.086-1.16-0.547-1.588c-0.403-0.373-0.884-0.316-1.233,0.121   c-0.561,0.699-0.47,2.047,0.196,2.703c0.113-0.084,0.229-0.17,0.354-0.264c-0.33-0.363-0.396-0.779-0.298-1.199   c0.042-0.178,0.242-0.316,0.37-0.473c0.145,0.123,0.339,0.221,0.421,0.377C13.06,6.089,13.082,6.341,13.159,6.647z" fill-rule="evenodd"/><path clip-rule="evenodd" d="M12.789,10.696c0.083,0.07,0.167,0.137,0.247,0.211   c0.788,0.73,1.405,0.816,2.355,0.314c0.274-0.145,0.537-0.313,0.811-0.461c0.101-0.053,0.218-0.078,0.343-0.07   c-0.781,0.41-1.452,1.1-2.443,0.963c-0.592-0.082-0.998-0.461-1.385-0.861C12.741,10.761,12.765,10.729,12.789,10.696z" fill-rule="evenodd"/></g></svg>