<?xml version="1.0" encoding="utf-8"?><svg version="1.0" id="Ebene_1" xmlns="http://www.w3.org/2000/svg" xmlns:xlink="http://www.w3.org/1999/xlink" x="0px" y="0px" viewBox="0 0 268.4 268.4" enable-background="new 0 0 268.4 268.4" xml:space="preserve"><g><circle fill="#303534" cx="134.2" cy="134.2" r="133.9"/><path fill="#303534" d="M114.5,162c6,4.3,11.5,6.6,18.8,6.6c19.3,0,33.5-15.7,33.5-35.1c0,0,0,0,0,0c0-19.4-14.1-35.1-33.5-35.1	c-19.4,0-34.3,15.7-34.3,35.1C99.1,144.8,105.3,155.4,114.5,162z"/><path fill="#FFFFFF" d="M61.4,241.6c1.3-28.5,15.9-48.8,36.2-66.3c10.3,9.2,23.6,14.3,37.4,14.3c31,0,56.4-25.6,56.2-56.6	c0-7.8-1.7-15.5-4.9-22.6c20.7-18.4,37.4-40.8,42.2-71.3c-5.8-5.9-12.9-11.6-19.7-16.3c-0.1,1.2,0,1.7-0.1,2.6	c-1.2,29.2-15,50.1-34.5,67.8c-22.2-21.6-57.8-21.1-79.4,1.1c-16.6,17.1-20.6,42.8-10,64.2c-22,18.7-39.3,41.1-43.5,72.5	c5.5,5.2,13.4,11.1,19.7,15.3C61.3,242.6,61.3,243.1,61.4,241.6z M133.1,98.4c19.4,0,33.3,15.7,33.3,35.1c0,0,0,0,0,0	c0,19.3-13.9,35.1-33.3,35.1c-7.3,0-13.6-2.3-19.5-6.6c-9.2-6.6-15.1-17.2-15.1-28.5C98.5,114.1,113.8,98.4,133.1,98.4z"/></g></svg>
