<svg id="icons" xmlns="http://www.w3.org/2000/svg" width="843.02" height="1000" viewBox="0 0 843.02 1000">
  <defs>
    <style>
      .cls-1 {
        fill: #444;
      }
    </style>
  </defs>
  <title>logo_icon</title>
  <path class="cls-1" d="M914,12H859.24a19.54,19.54,0,0,0-19.51,18.75c-5.4,130.09-67,223-153.59,301.9A250,250,0,0,0,288.21,623.53c-108.4,92.21-191.4,204-197.7,368.24A19.52,19.52,0,0,0,110,1012h54.76a19.55,19.55,0,0,0,19.51-18.69c5.83-126.82,71-217.14,161-295A249.05,249.05,0,0,0,512,762c137.82,0,251-114,250-251.78a249,249,0,0,0-21.87-100.63C845.33,315.86,927.36,199.21,933.5,32.22A19.53,19.53,0,0,0,914,12ZM668.24,512c0,86.15-70.1,156.25-156.25,156.25a155.39,155.39,0,0,1-91-29.34A156,156,0,0,1,355.74,512c0-86.16,70.09-156.25,156.25-156.25A156.21,156.21,0,0,1,668.24,512Z" transform="translate(-90.49 -12)"/>
</svg>
