<svg enable-background="new 0 0 1000 1000" viewBox="0 0 1000 1000" xmlns="http://www.w3.org/2000/svg"><path d="m902 0h-54.8c-10.5 0-19.1 8.3-19.5 18.8-5.4 130.1-67 223-153.6 301.9-99-96.2-257.3-93.9-353.5 5.1-74 76.2-91.8 190.8-44.4 285.8-108.4 92.1-191.4 203.9-197.7 368.2-.4 10.8 8 19.8 18.8 20.2h.7 54.8c10.5 0 19.1-8.2 19.5-18.7 5.8-126.8 71-217.1 161-295 45.8 41.1 105.2 63.8 166.7 63.7 137.8 0 251-114 250-251.8-.2-34.7-7.6-69-21.9-100.6 105.2-93.7 187.3-210.4 193.4-377.4.4-10.8-8-19.8-18.8-20.2-.2-0-.5-0-.7-0zm-245.7 500c0 86.2-70.1 156.2-156.2 156.2-32.7 0-64.5-10.2-91-29.3-41-29.3-65.3-76.6-65.2-126.9 0-86.2 70.1-156.2 156.2-156.2 86.2-.1 156.1 69.8 156.2 156.2 0-.1 0 0 0 0z" fill="#fff"/></svg>