<?xml version="1.0" encoding="utf-8"?>
<!-- Generator: Adobe Illustrator 21.1.0, SVG Export Plug-In . SVG Version: 6.00 Build 0)  -->
<svg version="1.1" id="icons" xmlns="http://www.w3.org/2000/svg" xmlns:xlink="http://www.w3.org/1999/xlink" x="0px" y="0px"
	 viewBox="0 0 1000 1000" style="enable-background:new 0 0 1000 1000;" xml:space="preserve">
<style type="text/css">
	.st0{fill:#FFFFFF;}
</style>
<path class="st0" d="M902,0h-54.8c-10.5,0-19.1,8.3-19.5,18.8c-5.4,130.1-67,223-153.6,301.9c-99-96.2-257.3-93.9-353.5,5.1
	c-74,76.2-91.8,190.8-44.4,285.8C167.8,703.7,84.8,815.5,78.5,979.8c-0.4,10.8,8,19.8,18.8,20.2c0.2,0,0.5,0,0.7,0h54.8
	c10.5,0,19.1-8.2,19.5-18.7c5.8-126.8,71-217.1,161-295c45.8,41.1,105.2,63.8,166.7,63.7c137.8,0,251-114,250-251.8
	c-0.2-34.7-7.6-69-21.9-100.6c105.2-93.7,187.3-210.4,193.4-377.4c0.4-10.8-8-19.8-18.8-20.2C902.5,0,902.2,0,902,0z M656.3,500
	c0,86.2-70.1,156.2-156.2,156.2c-32.7,0-64.5-10.2-91-29.3c-41-29.3-65.3-76.6-65.2-126.9c0-86.2,70.1-156.2,156.2-156.2
	C586.3,343.7,656.2,413.6,656.3,500C656.3,499.9,656.3,500,656.3,500z"/>
</svg>
