<svg xmlns="http://www.w3.org/2000/svg" viewBox="0 0 1024 1024"><path d="M896 32c-38.4 0-70.4 22.4-86.4 54.4-140.8 12.8-235.2 57.6-288 136-56 83.2-56 188.8-56 289.6 0 91.2 0 177.6-40 238.4-36.8 54.4-107.2 86.4-216 96-16-27.2-48-46.4-81.6-46.4-36.8 0-68.8 20.8-84.8 49.6H0v91.2h43.2c16 30.4 48 49.6 84.8 49.6 38.4 0 70.4-22.4 86.4-54.4 140.8-12.8 235.2-57.6 288-136 56-83.2 56-188.8 56-289.6 0-91.2 0-177.6 40-238.4 36.8-54.4 107.2-86.4 216-96 16 27.2 48 46.4 81.6 46.4 36.8 0 68.8-20.8 84.8-49.6h43.2V81.6h-43.2c-16-28.8-48-49.6-84.8-49.6zm48 96c0 22.4-14.4 40-33.6 46.4-4.8 1.6-9.6 1.6-14.4 1.6s-9.6-1.6-12.8-1.6c-20.8-6.4-35.2-24-35.2-46.4 0-20.8 14.4-40 33.6-44.8 4.8-1.6 9.6-3.2 14.4-3.2s9.6 1.6 14.4 1.6c19.2 6.4 33.6 24 33.6 46.4z"/></svg>