<svg xmlns="http://www.w3.org/2000/svg" viewBox="0 0 1024 1024"><path d="M896 32c-52.8 0-96 43.2-96 96 0 25.6 11.2 49.6 27.2 67.2-60.8 176-241.6 595.2-619.2 649.6-17.6-27.2-46.4-44.8-81.6-44.8-36.8 0-68.8 20.8-84.8 49.6H-1.6v91.2h43.2c16 30.4 48 49.6 84.8 49.6 38.4 0 72-22.4 88-56 219.2-28.8 409.6-164.8 555.2-400 73.6-120 120-238.4 145.6-313.6 27.2-6.4 51.2-24 64-48h43.2V81.6h-43.2C964.8 52.8 932.8 32 896 32zm48 96c0 27.2-20.8 48-48 48-25.6 0-46.4-20.8-48-46.4V128c0-9.6 3.2-17.6 6.4-24 6.4-9.6 16-17.6 27.2-20.8 4.8-1.6 9.6-1.6 14.4-1.6s9.6 1.6 14.4 1.6C929.6 88 944 105.6 944 128z"/></svg>