<svg xmlns="http://www.w3.org/2000/svg" viewBox="0 0 1024 1024"><path d="M896 32c-40 0-73.6 24-88 57.6-212.8 41.6-278.4 233.6-336 404.8C416 659.2 366.4 804.8 208 840c-17.6-25.6-46.4-41.6-80-41.6-36.8 0-68.8 20.8-84.8 49.6H0v91.2h43.2c16 30.4 48 49.6 84.8 49.6 40 0 73.6-24 88-57.6 217.6-41.6 283.2-235.2 342.4-408C612.8 360 662.4 216 817.6 180.8c17.6 25.6 46.4 41.6 80 41.6 36.8 0 68.8-20.8 84.8-49.6h43.2V81.6h-43.2C964.8 52.8 932.8 32 896 32zm48 96c0 22.4-14.4 40-33.6 46.4-4.8 1.6-9.6 1.6-14.4 1.6s-8-1.6-12.8-1.6c-20.8-6.4-35.2-24-35.2-46.4 0-20.8 14.4-38.4 33.6-44.8 4.8-1.6 9.6-3.2 14.4-3.2s9.6 1.6 14.4 1.6c19.2 6.4 33.6 24 33.6 46.4z"/></svg>