<svg xmlns="http://www.w3.org/2000/svg" viewBox="0 0 1024 1024"><path d="M896 32c-52.8 0-96 43.2-96 96 0 36.8 20.8 67.2 49.6 84.8C843.2 318.4 812.8 505.6 680 648 571.2 766.4 412.8 833.6 209.6 848c-16-28.8-48-48-83.2-48-36.8 0-68.8 20.8-84.8 49.6H-1.6v91.2h43.2c16 30.4 48 49.6 84.8 49.6 38.4 0 70.4-22.4 86.4-52.8 228.8-14.4 408-91.2 534.4-228.8 153.6-166.4 187.2-379.2 193.6-497.6 16-9.6 30.4-22.4 38.4-38.4h43.2V81.6h-43.2C964.8 52.8 932.8 32 896 32zm48 96c0 27.2-20.8 48-48 48-20.8 0-38.4-12.8-44.8-32-1.6-4.8-3.2-11.2-3.2-16 0-3.2 0-6.4 1.6-11.2 3.2-17.6 16-30.4 33.6-35.2 4.8-1.6 9.6-1.6 14.4-1.6s9.6 1.6 14.4 1.6c17.6 6.4 32 24 32 46.4z"/></svg>