<svg xmlns="http://www.w3.org/2000/svg" viewBox="0 0 1019 1024"><path d="M891.2 32c-41.6 0-76.8 25.6-89.6 62.4-299.2 78.4-576 524.8-678.4 705.6-36.8 0-68.8 20.8-84.8 49.6H0v91.2h38.4c16 30.4 48 49.6 84.8 49.6 52.8 0 96-43.2 96-96 0-19.2-6.4-36.8-16-52.8C323.2 627.2 576 254.4 814.4 184c17.6 22.4 44.8 38.4 76.8 38.4 36.8 0 68.8-20.8 84.8-49.6h43.2V81.6H976C958.4 52.8 926.4 32 891.2 32zm48 96c0 22.4-14.4 40-33.6 46.4-4.8 1.6-9.6 1.6-14.4 1.6s-8 0-11.2-1.6c-20.8-4.8-36.8-24-36.8-46.4 0-20.8 14.4-38.4 33.6-44.8 4.8-1.6 9.6-3.2 14.4-3.2s9.6 1.6 14.4 1.6c19.2 6.4 33.6 24 33.6 46.4z"/></svg>