<?xml version="1.0" encoding="utf-8"?>
<!-- Generator: Adobe Illustrator 21.1.0, SVG Export Plug-In . SVG Version: 6.00 Build 0)  -->
<svg version="1.1" id="Capa_1" xmlns="http://www.w3.org/2000/svg" xmlns:xlink="http://www.w3.org/1999/xlink" x="0px" y="0px"
	 viewBox="0 0 512 512" style="enable-background:new 0 0 512 512;" xml:space="preserve">
<style type="text/css">
	.st0{fill:#FFFFFF;}
</style>
<path class="st0" d="M511.5,205.7c-0.7-3.2-2.9-5.8-5.9-7c-26.6-10.6-54.8-16-83.8-16c-45.2,0-80.1,12.9-93.6,18.8L184.6,79.2
	c5-44.1-18.8-74.3-19.8-75.6c-1.7-2.1-4.3-3.4-7-3.6c-2.7-0.1-5.4,0.9-7.4,2.8L3.1,150.1c-2,1.9-3,4.6-2.8,7.4
	c0.2,2.7,1.5,5.3,3.6,7c21.1,16.7,46.8,20.2,64.6,20.2c4,0,7.4-0.2,10-0.4l122.9,144.4c-8.4,21.5-34,99.2-3,177.1
	c1.2,3,3.8,5.2,7,5.9c0.6,0.1,1.3,0.2,2,0.2c2.5,0,5-1,6.8-2.8l140.7-140.7L486,499.5c1.9,1.9,4.4,2.8,6.8,2.8
	c2.5,0,4.9-0.9,6.8-2.8c3.8-3.8,3.8-9.9,0-13.7L368.6,354.8l140.3-140.3C511.2,212.2,512.2,208.9,511.5,205.7z"/>
</svg>
