<?xml version="1.0" encoding="utf-8"?>
<svg version="1.1" id="Layer_1" xmlns="http://www.w3.org/2000/svg" xmlns:xlink="http://www.w3.org/1999/xlink" x="0px" y="0px"
	 viewBox="0 0 202.6 53.8" style="enable-background:new 0 0 202.6 53.8;" xml:space="preserve">
<style type="text/css">
	.st0{fill:#6B6B6B;}
</style>
<path class="st0" d="M202.1,0.5h-54.7v0h-6.3v0c-0.2,0-0.4,0-0.6,0c-8.9,0-16.4,5.7-19.2,13.5c-2.6-7.5-9.7-13-18.2-13.4V0.5h-22
	v15.4H81C79.2,7.3,71.7,0.7,62.6,0.1V0h-1.2c-0.1,0-0.1,0-0.2,0c-0.1,0-0.1,0-0.2,0H0v33.2h0c0,0,0,0.1,0,0.1C0,44.2,9.1,53,20.3,53
	c10,0,18.3-7.1,20-16.4v16.7H103v-0.1c8.5-0.3,15.6-5.8,18.3-13.3c2.7,7.8,10.3,13.5,19.2,13.5c0.3,0,0.6,0,0.9,0h20.9V36.1
	L181.9,53l19.9-17h0.3V0.5z M121.4,27C121.4,27,121.4,27,121.4,27c0,0,0-0.1-0.1-0.1c0,0,0,0,0,0C121.3,26.9,121.3,26.9,121.4,27z"
	/>
</svg>
