<svg id="Layer_1" data-name="Layer 1" xmlns="http://www.w3.org/2000/svg" viewBox="0 0 20 20"><defs><style>.cls-1,.cls-2{fill:none;}.cls-2{stroke:#000;stroke-linecap:round;stroke-linejoin:round;stroke-width:2px;}</style></defs><rect class="cls-1" width="20" height="20"/><path class="cls-2" d="M6,15.59"/><path d="M5.12,11.49"/><path class="cls-2" d="M7.65,16.68"/><path class="cls-2" d="M8.55,14.89"/><path d="M4.13,15.73V14.37h0a.75.75,0,0,1,.74-.75h1.4a.75.75,0,0,1,.74.75H7v1.36Z"/><path d="M8.57,15.73V14.37h0a.75.75,0,0,1,.74-.75h1.4a.75.75,0,0,1,.74.75h0v1.36Z"/><path d="M13,15.73V14.37h0a.76.76,0,0,1,.75-.75h1.39a.76.76,0,0,1,.75.75h0v1.36Z"/><path d="M10.87,8.56"/><path d="M11.45,6.83V8.19h0a.76.76,0,0,1-.75.75H9.31a.76.76,0,0,1-.75-.75h0V6.83Z"/><path d="M7,6.83V8.19H7a.75.75,0,0,1-.74.75H4.84a.75.75,0,0,1-.74-.75h0V6.83Z"/><rect class="cls-2" x="1.06" y="5.92" width="17.93" height="10.76" rx="1.79"/></svg>