<svg xmlns="http://www.w3.org/2000/svg" width="24" height="24" fill="currentColor" stroke="currentColor" stroke-width="0" viewBox="0 0 64 64" xml:space="preserve"><circle fill="none" cx="32.0645" cy="31.7881" r="29.0127" stroke="none"/><path d="M31.9438 0c8.9527 0 16.5328 3.1055 22.7437 9.3145C60.8945 15.4863 64.001 23.0459 64.001 32s-3.0489 16.457-9.1455 22.5137C48.418 60.8379 40.7793 64 31.9429 64c-8.649 0-16.1529-3.1426-22.5137-9.4297C3.144 48.2861 0 40.7617 0 32.001c0-8.7237 3.144-16.2852 9.4292-22.6846C15.6402 3.1054 23.145 0 31.9438 0zm.1167 5.7715c-7.2753 0-13.4296 2.5703-18.4584 7.7148C8.3818 18.7832 5.7729 24.9541 5.7729 32c0 7.125 2.5899 13.2568 7.77 18.4004 5.1812 5.1816 11.3521 7.7705 18.5157 7.7705 7.123 0 13.332-2.6084 18.627-7.8281 5.0283-4.876 7.543-10.9893 7.543-18.3428 0-7.3125-2.5538-13.4844-7.6563-18.5137-5.0674-5.1445-11.2383-7.7148-18.5118-7.7148zM44.1172 24.456v5.4853H20.8599v-5.4853h23.2573zm0 10.287v5.4815H20.8599v-5.4814h23.2573z" stroke="none"/></svg>