<?xml version="1.0" encoding="utf-8"?>
<!-- Generator: Adobe Illustrator 24.3.0, SVG Export Plug-In . SVG Version: 6.00 Build 0)  -->
<svg version="1.1" id="Layer_1" xmlns="http://www.w3.org/2000/svg" xmlns:xlink="http://www.w3.org/1999/xlink" x="0px" y="0px"
	 viewBox="0 0 19.6 19.6" style="enable-background:new 0 0 19.6 19.6;" xml:space="preserve">
<style type="text/css">
	.st0{fill:none;}
	.st1{fill:none;stroke:#000000;stroke-miterlimit:10;}
	.st2{stroke:#000000;stroke-miterlimit:10;}
</style>
<g id="Layer_2_2_">
</g>
<g id="Layer_2_3_">
	<rect class="st0" width="19.6" height="19.6"/>
</g>
<g>
	<path class="st1" d="M1.2,10.4l5.9,3.5c0.4,0.3,1.1-0.2,1.1-0.7V6.4c0-0.6-0.6-1.1-1.2-0.7L1,9C0.6,9.4,0.6,10.2,1.2,10.4z"/>
	<path class="st2" d="M15.3,5.8l3.4,3.4c0.4,0.4,0.4,0.9,0,1.2l-3.4,3.4c-0.4,0.4-0.9,0.4-1.2,0l-3.4-3.4c-0.4-0.4-0.4-0.9,0-1.2
		L14,5.8C14.4,5.4,14.9,5.4,15.3,5.8z"/>
</g>
</svg>
