<?xml version="1.0" encoding="utf-8"?>
<!-- Generator: Adobe Illustrator 24.3.0, SVG Export Plug-In . SVG Version: 6.00 Build 0)  -->
<svg version="1.1" id="Layer_1" xmlns="http://www.w3.org/2000/svg" xmlns:xlink="http://www.w3.org/1999/xlink" x="0px" y="0px"
	 viewBox="0 0 19.6 19.6" style="enable-background:new 0 0 19.6 19.6;" xml:space="preserve">
<style type="text/css">
	.st0{fill:none;}
	.st1{fill:none;stroke:#000000;stroke-miterlimit:10;}
	.st2{stroke:#000000;stroke-miterlimit:10;}
</style>
<g id="Layer_2_2_">
</g>
<g id="Layer_2_3_">
	<rect class="st0" width="19.6" height="19.6"/>
</g>
<g>
	<path class="st1" d="M18.4,9.2l-5.9-3.5c-0.4-0.3-1.1,0.2-1.1,0.7v6.8c0,0.6,0.6,1.1,1.2,0.7l5.9-3.3C19,10.2,19,9.4,18.4,9.2z"/>
	<path class="st2" d="M4.3,13.8L1,10.4c-0.4-0.4-0.4-0.9,0-1.2l3.4-3.4c0.4-0.4,0.9-0.4,1.2,0L9,9.2c0.4,0.4,0.4,0.9,0,1.2l-3.4,3.4
		C5.2,14.2,4.7,14.2,4.3,13.8z"/>
</g>
</svg>
