<?xml version="1.0" encoding="utf-8"?>
<!-- Generator: Adobe Illustrator 24.3.0, SVG Export Plug-In . SVG Version: 6.00 Build 0)  -->
<svg version="1.1" id="Layer_1" xmlns="http://www.w3.org/2000/svg" xmlns:xlink="http://www.w3.org/1999/xlink" x="0px" y="0px"
	 viewBox="0 0 24 24" style="enable-background:new 0 0 24 24;" xml:space="preserve">
<style type="text/css">
	.st0{fill:none;}
</style>
<path id="Layer_2_3_" class="st0" d="M0,0h24v24H0V0z"/>
<g>
	<g>
		<g>
			<g>
				<path d="M19.9,0.9c-0.3-0.5-0.9-0.6-1.4-0.2C18.1,1,18,1.6,18.3,2.1c1.2,1.7,1.8,3.7,1.8,5.8v8c0,0.6,0.4,1,1,1s1-0.4,1-1v-8
					C22.1,5.4,21.4,3,19.9,0.9z"/>
			</g>
		</g>
		<g>
			<g>
				<path d="M10.6,23.5H9.4c-4.1,0-7.5-3.4-7.5-7.5V8c0-1.9,0.7-3.8,2.1-5.2c1.4-1.5,3.4-2.3,5.4-2.3h1.2c2,0,4,0.8,5.4,2.3
					c1.4,1.4,2.1,3.3,2.1,5.2v8C18.1,20.1,14.7,23.5,10.6,23.5z M9.4,2.5c-1.5,0-2.9,0.6-4,1.7c-1,1-1.5,2.4-1.5,3.8v8
					c0,3,2.5,5.5,5.5,5.5h1.2c3,0,5.5-2.5,5.5-5.5V8c0-1.4-0.5-2.8-1.5-3.8c-1-1.1-2.4-1.7-3.9-1.7H9.4z"/>
			</g>
			<path d="M10,8.6L10,8.6c-1.1,0-2-0.9-2-2V2.6c0-1.1,0.9-2,2-2h0c1.1,0,2,0.9,2,2v4.1C12,7.7,11.1,8.6,10,8.6z"/>
		</g>
	</g>
</g>
</svg>
