<?xml version="1.0" encoding="utf-8"?>
<!-- Generator: Adobe Illustrator 24.3.0, SVG Export Plug-In . SVG Version: 6.00 Build 0)  -->
<svg version="1.1" id="Layer_1" xmlns="http://www.w3.org/2000/svg" xmlns:xlink="http://www.w3.org/1999/xlink" x="0px" y="0px"
	 viewBox="0 0 19.6 19.6" style="enable-background:new 0 0 19.6 19.6;" xml:space="preserve">
<style type="text/css">
	.st0{fill:none;}
	.st1{fill:none;stroke:#000000;stroke-width:1.5;stroke-linecap:round;stroke-linejoin:round;}
	.st2{stroke:#000000;stroke-width:1.5;stroke-miterlimit:10;}
</style>
<g id="Layer_2_2_">
</g>
<g id="Layer_2_3_">
	<rect class="st0" width="19.6" height="19.6"/>
</g>
<path class="st1" d="M14.6,2.9c0.8,1,1.2,2.2,1.2,3.5v6.9c0,3.1-2.5,5.6-5.6,5.6h-1c-3.1,0-5.6-2.5-5.6-5.6V6.4
	c0-1.4,0.5-2.6,1.3-3.6"/>
<path class="st2" d="M10.6,6.4h-2C8.3,6.4,8,6.1,8,5.8V2.4c0-0.9,0.7-1.6,1.6-1.6h0.2c0.9,0,1.6,0.7,1.6,1.6v3.1
	C11.5,6,11.1,6.4,10.6,6.4z"/>
</svg>
