<svg version="1.1" id="Layer_1" xmlns="http://www.w3.org/2000/svg" x="0" y="0" viewBox="0 0 19.6 19.6" style="enable-background:new 0 0 19.6 19.6" xml:space="preserve"><style>.st1{fill:none;stroke:#000;stroke-width:1.5;stroke-linecap:round;stroke-linejoin:round}</style><path style="fill:none" d="M0 0h19.6v19.6H0z" id="Layer_2_3_"/><path class="st1" d="M12.7 2.9c.8 1 1.2 2.2 1.2 3.5v6.9c0 3.1-2.5 5.6-5.6 5.6h-1c-3.1 0-5.6-2.5-5.6-5.6V6.4c0-1.4.5-2.6 1.3-3.6"/><path d="M8.7 6.3h-2c-.3 0-.6-.3-.6-.6V2.4c0-.9.7-1.6 1.6-1.6h.2c.9 0 1.6.7 1.6 1.6v3.1c0 .5-.4.8-.8.8z" style="stroke:#000;stroke-width:1.5;stroke-miterlimit:10"/><path class="st1" d="M16.1.8c1.1 1.6 1.8 3.5 1.8 5.6v6.9"/></svg>