<?xml version="1.0" encoding="utf-8"?>
<!-- Generator: Adobe Illustrator 24.3.0, SVG Export Plug-In . SVG Version: 6.00 Build 0)  -->
<svg version="1.1" id="Layer_1" xmlns="http://www.w3.org/2000/svg" xmlns:xlink="http://www.w3.org/1999/xlink" x="0px" y="0px"
	 viewBox="0 0 24 24" style="enable-background:new 0 0 24 24;" xml:space="preserve">
<style type="text/css">
	.st0{fill:none;}
</style>
<g id="Layer_2_2_">
</g>
<g id="Layer_2_3_">
	<rect class="st0" width="24" height="24"/>
</g>
<g>
	<g>
		<path d="M12.6,23.5h-1.2c-4.1,0-7.5-3.4-7.5-7.5V8c0-4.1,3.4-7.5,7.5-7.5h1.2c4.1,0,7.5,3.4,7.5,7.5v8
			C20.1,20.1,16.7,23.5,12.6,23.5z M11.4,2.5C8.4,2.5,5.9,5,5.9,8v8c0,3,2.5,5.5,5.5,5.5h1.2c3,0,5.5-2.5,5.5-5.5V8
			c0-3-2.5-5.5-5.5-5.5H11.4z"/>
	</g>
	<g>
		<path d="M12,11.6c-1.1,0-2-0.9-2-2V6.5c0-1.1,0.9-2,2-2s2,0.9,2,2v3.1C14,10.7,13.1,11.6,12,11.6z"/>
	</g>
</g>
</svg>
