<?xml version="1.0" encoding="utf-8"?>
<!-- Generator: Adobe Illustrator 24.3.0, SVG Export Plug-In . SVG Version: 6.00 Build 0)  -->
<svg version="1.1" id="Layer_1" xmlns="http://www.w3.org/2000/svg" xmlns:xlink="http://www.w3.org/1999/xlink" x="0px" y="0px"
	 viewBox="0 0 19.6 19.6" style="enable-background:new 0 0 19.6 19.6;" xml:space="preserve">
<style type="text/css">
	.st0{fill:none;}
	.st1{fill:none;stroke:#000000;stroke-width:1.5;stroke-linecap:round;stroke-linejoin:round;}
	.st2{stroke:#000000;stroke-width:1.5;stroke-miterlimit:10;}
</style>
<g id="Layer_2_2_">
</g>
<g id="Layer_2_3_">
	<rect class="st0" width="19.6" height="19.6"/>
</g>
<path class="st1" d="M12.7,2.9c0.8,1,1.2,2.2,1.2,3.5v6.9c0,3.1-2.5,5.6-5.6,5.6h-1c-3.1,0-5.6-2.5-5.6-5.6V6.4C1.7,5,2.2,3.8,3,2.8
	"/>
<path class="st2" d="M8.7,6.3h-2c-0.3,0-0.6-0.3-0.6-0.6V2.4c0-0.9,0.7-1.6,1.6-1.6h0.2c0.9,0,1.6,0.7,1.6,1.6v3.1
	C9.5,6,9.1,6.3,8.7,6.3z"/>
<path class="st1" d="M16.1,0.8c1.1,1.6,1.8,3.5,1.8,5.6v6.9"/>
</svg>
