<svg id="Layer_1" data-name="Layer 1" xmlns="http://www.w3.org/2000/svg" viewBox="0 0 24 24"><defs><style>.cls-1,.cls-2{fill:none;}.cls-2{stroke:#000;stroke-linecap:round;stroke-linejoin:round;stroke-width:2px;}</style></defs><rect class="cls-1" width="24" height="24"/><path class="cls-2" d="M8,3H5A2,2,0,0,0,3,5V8M16,21h3a2,2,0,0,0,2-2V16M3,16v3a2,2,0,0,0,2,2H8"/><path class="cls-2" d="M21,8V5a2,2,0,0,0-2-2H16"/><line class="cls-2" x1="3.05" y1="11.99" x2="9.48" y2="11.99"/><line class="cls-2" x1="6.7" y1="9.15" x2="9.48" y2="11.93"/><line class="cls-2" x1="6.69" y1="14.85" x2="9.47" y2="12.07"/><line class="cls-2" x1="20.95" y1="12.01" x2="14.52" y2="12.01"/><line class="cls-2" x1="17.3" y1="14.85" x2="14.52" y2="12.07"/><line class="cls-2" x1="17.31" y1="9.15" x2="14.53" y2="11.93"/></svg>