<svg id="Layer_1" data-name="Layer 1" xmlns="http://www.w3.org/2000/svg" viewBox="0 0 20 20"><defs><style>.cls-1,.cls-2{fill:none;}.cls-1{stroke:#000;stroke-linecap:round;stroke-linejoin:round;stroke-width:2px;}</style></defs><path class="cls-1" d="M9.22,13.59l5.32-5.31L11.59,5.33l-7.3,7.3a.71.71,0,0,0,0,1l1.94,1.94a.73.73,0,0,0,1,0Z"/><path class="cls-1" d="M12.42,4.5l2.85-2.85a2.09,2.09,0,0,1,2.95,0h0a2.09,2.09,0,0,1,0,2.95L15.37,7.44"/><line class="cls-1" x1="10.38" y1="4.12" x2="15.74" y2="9.48"/><line class="cls-1" x1="5.01" y1="14.86" x2="2.91" y2="16.95"/><line class="cls-1" x1="12.04" y1="10.8" x2="6.15" y2="10.8"/><line class="cls-1" x1="1.92" y1="18.97" x2="1.92" y2="18.97"/><rect class="cls-2" width="20" height="20"/></svg>