<?xml version="1.0" encoding="utf-8"?>
<!-- Generator: Adobe Illustrator 21.1.0, SVG Export Plug-In . SVG Version: 6.00 Build 0)  -->
<svg version="1.1" id="Capa_1" xmlns="http://www.w3.org/2000/svg" xmlns:xlink="http://www.w3.org/1999/xlink" x="0px" y="0px"
	 viewBox="0 0 512 512" style="enable-background:new 0 0 512 512;" xml:space="preserve">
<style type="text/css">
	.st0{fill:#FFFFFF;}
</style>
<path class="st0" d="M511.5,205.7c-0.7-3.2-2.9-5.8-5.9-7c-82.8-33-156.2-6.4-177.3,2.8L184.6,79.2c5-44.1-18.8-74.3-19.8-75.6
	c-1.7-2.1-4.3-3.4-7-3.6c-2.7-0.1-5.4,0.9-7.4,2.8L3.1,150.1c-2,1.9-3,4.6-2.8,7.4c0.2,2.7,1.5,5.3,3.6,7
	c26.8,21.3,61.3,20.9,74.6,19.8l122.9,144.4c-8.4,21.5-34,99.2-3,177.1c1.2,3,3.8,5.2,7,5.9c0.6,0.1,1.3,0.2,2,0.2
	c2.5,0,5-1,6.8-2.8L355,368.5L486,499.5c1.9,1.9,4.4,2.8,6.8,2.8c2.5,0,4.9-0.9,6.8-2.8c3.8-3.8,3.8-9.9,0-13.7L368.6,354.8
	l140.3-140.3C511.2,212.2,512.2,208.9,511.5,205.7z M341.1,355L211.4,484.7c-23.5-77.3,9.6-152.9,9.9-153.7c1.5-3.4,1-7.4-1.4-10.2
	L89.9,168c-1.8-2.2-4.6-3.4-7.4-3.4c-0.5,0-1,0-1.5,0.1c-0.3,0.1-30.6,4.6-56-9.2L155.5,25.1c5.8,11.2,13.4,31.5,9.3,56.5
	c-0.6,3.3,0.7,6.7,3.3,8.9l152.5,129.7c3,2.5,7.2,3,10.7,1.2c0.7-0.4,71.3-35.7,153.3-9.8L341.1,355z"/>
</svg>
