<?xml version="1.0" encoding="iso-8859-1"?>
<!-- Generator: Adobe Illustrator 18.1.1, SVG Export Plug-In . SVG Version: 6.00 Build 0)  -->
<svg version="1.1" id="Capa_1" xmlns="http://www.w3.org/2000/svg" xmlns:xlink="http://www.w3.org/1999/xlink" x="0px" y="0px"
	 viewBox="0 0 28.901 28.901" style="enable-background:new 0 0 28.901 28.901;" xml:space="preserve">
<g>
	<path style="fill:#030104;" d="M28.901,13.375v0.183c0,0.66-0.2,1.261-0.598,1.803c-0.374,0.519-0.842,0.915-1.405,1.191
		c0.021,0.119,0.039,0.248,0.051,0.387c0.013,0.14,0.021,0.278,0.021,0.425c0,1.431-0.481,2.723-1.443,3.879
		c-0.844,1.034-1.865,1.866-3.068,2.498c-1.204,0.631-2.459,1.104-3.77,1.415c-0.71,0.146-1.416,0.262-2.123,0.353
		c-0.702,0.091-1.408,0.137-2.117,0.137c-1.082,0-2.147-0.095-3.194-0.282c-1.044-0.187-2.061-0.465-3.047-0.838
		c-1.034-0.397-2.015-0.909-2.94-1.533c-0.929-0.625-1.697-1.407-2.31-2.347c-0.325-0.491-0.571-1.021-0.74-1.586
		c-0.169-0.566-0.254-1.13-0.254-1.695c0-0.121,0.008-0.249,0.019-0.389c0.014-0.138,0.028-0.267,0.055-0.387
		c-0.59-0.325-1.048-0.725-1.371-1.191C0.245,14.831,0.021,14.24,0,13.629c0-0.445,0.097-0.868,0.297-1.273
		c0.199-0.403,0.458-0.767,0.783-1.091c0.348-0.324,0.73-0.577,1.147-0.757c0.414-0.182,0.868-0.271,1.359-0.271h0.037h0.289
		c0.494,0,0.962,0.073,1.405,0.217c0.423,0.144,0.807,0.343,1.157,0.596c0.046-0.024,0.101-0.049,0.162-0.072
		c0.059-0.024,0.125-0.049,0.197-0.074c1.037-0.564,2.143-0.975,3.328-1.235c1.186-0.257,2.367-0.43,3.545-0.512
		c0-0.544,0.049-1.089,0.146-1.642c0.095-0.553,0.294-1.078,0.595-1.569c0.24-0.423,0.553-0.78,0.939-1.076
		c0.384-0.293,0.821-0.501,1.315-0.621h0.036c0.374-0.072,0.738-0.107,1.101-0.107c0.964,0,1.938,0.196,2.923,0.595
		c0.397-0.587,0.947-1.024,1.662-1.299h0.033c0.445-0.123,0.868-0.184,1.265-0.184c0.494,0,0.927,0.085,1.298,0.254h0.038
		c0.587,0.216,1.081,0.583,1.479,1.1c0.396,0.542,0.591,1.126,0.579,1.749c0,0.146-0.014,0.254-0.036,0.327
		c-0.049,0.42-0.169,0.795-0.362,1.127c-0.193,0.33-0.439,0.622-0.74,0.873c-0.663,0.543-1.413,0.812-2.255,0.812h-0.413
		c-0.844-0.07-1.552-0.401-2.131-0.989c-0.276-0.277-0.498-0.588-0.665-0.93c-0.169-0.344-0.254-0.726-0.254-1.146v-0.11
		c-0.396-0.144-0.793-0.273-1.193-0.388c-0.395-0.112-0.806-0.172-1.225-0.172h-0.325c-0.686,0.071-1.167,0.381-1.443,0.922
		c-0.216,0.371-0.358,0.774-0.423,1.208c-0.066,0.434-0.103,0.866-0.103,1.299c1.184,0.072,2.339,0.246,3.476,0.523
		c1.137,0.274,2.225,0.685,3.255,1.227l0.037,0.036c0.047,0,0.098,0.023,0.145,0.072c0.194-0.146,0.355-0.247,0.486-0.306
		c0.611-0.398,1.316-0.59,2.112-0.579c0.301,0,0.62,0.036,0.956,0.109h0.036c0.731,0.193,1.377,0.57,1.93,1.135
		C28.52,11.961,28.829,12.619,28.901,13.375z M4.885,12.076c-0.169-0.047-0.327-0.095-0.476-0.144
		c-0.15-0.049-0.317-0.071-0.496-0.071H3.767H3.733c-0.445,0.048-0.866,0.22-1.262,0.523c-0.352,0.322-0.54,0.703-0.579,1.137v0.108
		c0,0.3,0.085,0.546,0.254,0.74c0.118,0.216,0.259,0.376,0.415,0.486c0.274-0.541,0.609-1.041,0.998-1.499
		C3.951,12.9,4.395,12.474,4.885,12.076z M25.129,17.4c0-0.494-0.087-0.968-0.262-1.427c-0.177-0.456-0.406-0.889-0.693-1.298
		c-0.618-0.796-1.364-1.449-2.257-1.969c-0.891-0.515-1.828-0.911-2.814-1.189l-0.578-0.145l-0.559-0.143
		c-0.563-0.122-1.145-0.212-1.741-0.272c-0.594-0.06-1.175-0.091-1.738-0.091c-1.626,0-3.178,0.219-4.656,0.65
		c-0.988,0.278-1.92,0.68-2.807,1.209c-0.884,0.529-1.639,1.189-2.263,1.983c-0.639,0.796-0.956,1.703-0.956,2.726
		c0,0.397,0.047,0.739,0.144,1.029c0.219,0.758,0.615,1.459,1.193,2.11c0.566,0.565,1.211,1.081,1.945,1.55l0.272,0.127l0.254,0.146
		c1.034,0.541,2.136,0.936,3.309,1.181c1.172,0.247,2.36,0.37,3.564,0.37h0.612c0.201,0,0.409-0.01,0.612-0.037
		c1.203-0.097,2.383-0.317,3.536-0.667c1.154-0.348,2.225-0.854,3.211-1.515c0.663-0.469,1.203-0.986,1.623-1.552
		c0.495-0.613,0.819-1.269,0.976-1.967c0.047-0.12,0.072-0.247,0.072-0.378L25.129,17.4L25.129,17.4z M9.415,17.579
		c0.169,0.071,0.354,0.107,0.56,0.107c0.468,0,0.891-0.156,1.263-0.47c0.398-0.323,0.596-0.721,0.596-1.188V15.99v-0.072
		c0-0.443-0.187-0.822-0.559-1.135c-0.396-0.325-0.832-0.488-1.3-0.488c-0.145,0-0.267,0.011-0.359,0.037
		c-0.325,0.048-0.612,0.176-0.857,0.388c-0.249,0.21-0.418,0.466-0.516,0.768c-0.049,0.07-0.073,0.149-0.073,0.233v0.236
		c0,0.396,0.109,0.744,0.327,1.046C8.736,17.292,9.041,17.483,9.415,17.579z M19.518,19.764c-0.189-0.098-0.353-0.146-0.486-0.146
		c-0.143,0-0.297,0.036-0.451,0.11c-1.31,0.733-2.737,1.105-4.276,1.117c-1.154,0-2.225-0.222-3.211-0.667
		c-0.143-0.049-0.319-0.162-0.522-0.343c-0.049-0.024-0.102-0.046-0.161-0.071c-0.061-0.024-0.123-0.049-0.183-0.071
		c-0.143-0.049-0.252-0.075-0.325-0.075c-0.071,0-0.181,0.026-0.324,0.075h-0.04c-0.144,0.047-0.28,0.153-0.413,0.323
		c-0.071,0.12-0.107,0.271-0.107,0.451c0,0.144,0.036,0.294,0.107,0.449c0.072,0.122,0.182,0.218,0.326,0.289
		c1.383,0.867,2.896,1.301,4.545,1.301c0.085,0,0.177,0,0.269,0c0.794,0,1.565-0.076,2.31-0.226c0.746-0.15,1.47-0.389,2.167-0.712
		c0.095-0.049,0.197-0.098,0.308-0.146c0.107-0.047,0.222-0.107,0.34-0.179c0.123-0.05,0.226-0.121,0.311-0.217
		c0.118-0.119,0.189-0.247,0.215-0.381c0.025-0.047,0.038-0.106,0.038-0.179c0-0.071-0.025-0.181-0.076-0.325
		C19.805,19.96,19.685,19.834,19.518,19.764z M20.652,15.449c0.075,0.193,0.11,0.374,0.11,0.541c0,0.373-0.11,0.711-0.326,1.013
		c-0.299,0.323-0.606,0.516-0.919,0.576h-0.053c-0.193,0.071-0.362,0.107-0.505,0.107c-0.449,0-0.843-0.131-1.191-0.395
		c-0.35-0.218-0.561-0.536-0.635-0.958v-0.036c-0.021-0.071-0.033-0.176-0.033-0.308c0-0.372,0.115-0.691,0.343-0.955
		c0.216-0.301,0.5-0.51,0.848-0.633c0.216-0.07,0.428-0.107,0.631-0.107c0.374,0,0.728,0.098,1.065,0.29
		C20.337,14.814,20.559,15.101,20.652,15.449z M22.062,6.321v0.071c0,0.398,0.156,0.729,0.468,0.994
		C22.859,7.661,23.217,7.8,23.613,7.8h0.108c0.398,0,0.752-0.139,1.065-0.414c0.299-0.277,0.474-0.608,0.522-0.994V6.321
		c0-0.421-0.173-0.769-0.522-1.046c-0.301-0.302-0.667-0.445-1.102-0.432c-0.167,0-0.306,0.01-0.415,0.035
		c-0.349,0.071-0.63,0.241-0.845,0.504C22.179,5.638,22.062,5.947,22.062,6.321z M27.041,13.558c0-0.218-0.063-0.453-0.181-0.705
		c-0.169-0.301-0.428-0.547-0.776-0.741c-0.349-0.167-0.704-0.251-1.065-0.251c-0.349,0-0.671,0.071-0.971,0.216
		c0.492,0.397,0.938,0.823,1.332,1.28c0.398,0.458,0.729,0.968,0.994,1.535c0.169-0.146,0.317-0.32,0.452-0.522
		C26.97,14.126,27.041,13.857,27.041,13.558z"/>
</g>
<g>
</g>
<g>
</g>
<g>
</g>
<g>
</g>
<g>
</g>
<g>
</g>
<g>
</g>
<g>
</g>
<g>
</g>
<g>
</g>
<g>
</g>
<g>
</g>
<g>
</g>
<g>
</g>
<g>
</g>
</svg>
