<svg id="Layer_1" data-name="Layer 1" xmlns="http://www.w3.org/2000/svg" viewBox="0 0 24 24"><defs><style>.cls-1,.cls-2{fill:none;}.cls-1{stroke:#000;stroke-linecap:round;stroke-linejoin:round;stroke-width:2px;}</style></defs><line class="cls-1" x1="12.03" y1="15.9" x2="8.09" y2="15.9"/><line class="cls-1" x1="8" y1="11.86" x2="8" y2="15.8"/><path class="cls-1" d="M8,3H5A2,2,0,0,0,3,5V8M16,21h3a2,2,0,0,0,2-2V16M3,16v3a2,2,0,0,0,2,2H8"/><line class="cls-1" x1="11.97" y1="8.1" x2="15.91" y2="8.1"/><line class="cls-1" x1="16" y1="12.14" x2="16" y2="8.2"/><path class="cls-1" d="M16,21h3a2,2,0,0,0,2-2V16M8,3H5A2,2,0,0,0,3,5V8M21,8V5a2,2,0,0,0-2-2H16"/><rect class="cls-2" width="24" height="24"/></svg>