<svg id="Layer_1" data-name="Layer 1" xmlns="http://www.w3.org/2000/svg" viewBox="0 0 23.95 23.95"><defs><style>.cls-1,.cls-2{fill:none;}.cls-2{stroke:#000;stroke-linecap:round;stroke-linejoin:round;stroke-width:2px;}</style></defs><rect class="cls-1" width="23.95" height="23.95"/><line class="cls-2" x1="6.7" y1="6.47" x2="9.76" y2="6.47"/><line class="cls-2" x1="6.7" y1="9.98" x2="9.76" y2="9.98"/><line class="cls-2" x1="14.3" y1="13.79" x2="17.36" y2="13.79"/><line class="cls-2" x1="14.24" y1="17.3" x2="17.31" y2="17.3"/><line class="cls-2" x1="14.27" y1="13.79" x2="17.33" y2="13.79"/><line class="cls-2" x1="11.14" y1="12.73" x2="6.59" y2="17.28"/><line class="cls-2" x1="10.57" y1="17.32" x2="6.63" y2="17.32"/><line class="cls-2" x1="6.54" y1="13.28" x2="6.54" y2="17.21"/><path class="cls-2" d="M8,3H5A2,2,0,0,0,3,5V8M16,21h3a2,2,0,0,0,2-2V16M3,16v3a2,2,0,0,0,2,2H8" transform="translate(-0.02 -0.02)"/><rect class="cls-2" x="13.52" y="3.08" width="7.43" height="6.83" rx="2"/></svg>