<svg xmlns="http://www.w3.org/2000/svg" viewBox="0 0 1024 1024"><path d="M896 32c-38.4 0-70.4 22.4-86.4 52.8-220.8 14.4-396.8 89.6-521.6 224-156.8 168-195.2 382.4-203.2 500.8-17.6 9.6-30.4 22.4-40 40H1.6v91.2h43.2c16 30.4 48 49.6 84.8 49.6 52.8 0 96-43.2 96-96 0-35.2-19.2-67.2-48-83.2 8-107.2 43.2-297.6 179.2-441.6C465.6 254.4 619.2 188.8 816 174.4c16 28.8 48 48 83.2 48 36.8 0 68.8-20.8 84.8-49.6h43.2V81.6H984C964.8 52.8 932.8 32 896 32zm48 96c0 22.4-14.4 40-33.6 46.4-4.8 1.6-9.6 1.6-14.4 1.6s-9.6-1.6-12.8-1.6c-20.8-6.4-35.2-24-35.2-46.4 0-20.8 14.4-40 33.6-44.8 4.8-1.6 9.6-3.2 14.4-3.2s9.6 1.6 14.4 1.6c19.2 6.4 33.6 24 33.6 46.4z"/></svg>