<svg xmlns="http://www.w3.org/2000/svg" viewBox="0 0 1019 1024"><path d="M891.2 32c-41.6 0-76.8 27.2-89.6 64-156.8 48-244.8 222.4-328 392-78.4 156.8-152 305.6-273.6 348.8-17.6-22.4-44.8-36.8-75.2-36.8C88 800 56 820.8 40 849.6H1.6v91.2H40c16 30.4 48 49.6 84.8 49.6 41.6 0 76.8-25.6 89.6-62.4 164.8-48 254.4-227.2 340.8-400C630.4 376 704 232 817.6 187.2c17.6 22.4 44.8 36.8 75.2 36.8 36.8 0 68.8-20.8 84.8-49.6h43.2V83.2h-43.2C958.4 52.8 926.4 32 891.2 32zm48 96c0 22.4-14.4 40-33.6 46.4-4.8 1.6-9.6 1.6-14.4 1.6s-8 0-12.8-1.6c-20.8-4.8-35.2-24-35.2-46.4 0-20.8 14.4-38.4 32-44.8 4.8-1.6 9.6-3.2 16-3.2 4.8 0 9.6 1.6 14.4 1.6 19.2 6.4 33.6 24 33.6 46.4z"/></svg>