<svg xmlns="http://www.w3.org/2000/svg" viewBox="0 0 1024 1024"><path d="M896 32c-52.8 0-96 43.2-96 96 0 9.6 1.6 19.2 3.2 27.2l-649.6 648c-8-3.2-17.6-3.2-27.2-3.2-35.2 0-67.2 19.2-83.2 49.6H-1.6v91.2h43.2c16 30.4 48 51.2 84.8 51.2 52.8 0 96-43.2 96-96 0-9.6-1.6-19.2-4.8-28.8l649.6-648c8 3.2 17.6 4.8 27.2 4.8 36.8 0 68.8-20.8 84.8-49.6h43.2V83.2h-43.2C964.8 52.8 932.8 32 896 32zm48 96c0 27.2-20.8 48-48 48s-48-20.8-48-48c0-8 1.6-16 6.4-22.4 4.8-8 11.2-14.4 19.2-19.2 3.2-1.6 6.4-3.2 9.6-3.2 4.8-1.6 9.6-1.6 14.4-1.6s9.6 1.6 14.4 1.6c17.6 4.8 32 22.4 32 44.8z"/></svg>