<svg xmlns="http://www.w3.org/2000/svg" viewBox="0 0 1024 1024"><path d="M896 32c-38.4 0-72 22.4-88 56-216 28.8-404.8 164.8-552 400-75.2 120-121.6 238.4-148.8 313.6-28.8 6.4-52.8 24-65.6 48H-1.6v91.2h43.2c16 30.4 48 49.6 84.8 49.6 52.8 0 96-43.2 96-96 0-25.6-11.2-49.6-27.2-67.2C256 651.2 440 232 814.4 177.6c17.6 27.2 46.4 44.8 81.6 44.8 36.8 0 68.8-20.8 84.8-49.6h43.2V81.6h-43.2c-16-28.8-48-49.6-84.8-49.6zm48 96c0 22.4-14.4 40-33.6 46.4-4.8 1.6-9.6 1.6-14.4 1.6s-8-1.6-12.8-1.6c-20.8-6.4-35.2-24-35.2-46.4 0-20.8 14.4-38.4 32-44.8 4.8-1.6 9.6-3.2 16-3.2 4.8 0 9.6 1.6 14.4 1.6 19.2 6.4 33.6 24 33.6 46.4z"/></svg>