<svg xmlns="http://www.w3.org/2000/svg" viewBox="0 0 1024 1024"><path d="M980.8 81.6c-16-30.4-48-49.6-84.8-49.6-52.8 0-96 43.2-96 96 0 19.2 6.4 36.8 16 52.8-121.6 214.4-376 585.6-611.2 657.6C187.2 816 160 800 128 800c-36.8 0-68.8 20.8-84.8 49.6H0v91.2h43.2c16 30.4 48 49.6 84.8 49.6 41.6 0 76.8-25.6 89.6-62.4 9.6-3.2 19.2-6.4 30.4-9.6h350.4c8 14.4 24 24 41.6 24 27.2 0 48-20.8 48-48s-20.8-48-48-48c-17.6 0-33.6 9.6-41.6 24H347.2C592 721.6 808 376 896 222.4c36.8 0 68.8-20.8 84.8-49.6h43.2V81.6h-43.2zM944 128c0 27.2-20.8 48-48 48s-48-20.8-48-48c0-3.2 0-6.4 1.6-8 1.6-9.6 6.4-17.6 12.8-25.6 4.8-6.4 12.8-9.6 20.8-12.8 4.8-1.6 9.6-1.6 14.4-1.6s9.6 1.6 14.4 1.6c17.6 6.4 32 24 32 46.4z"/></svg>