<svg xmlns="http://www.w3.org/2000/svg" viewBox="0 0 1024 1024"><path d="M980.8 81.6c-16-30.4-48-49.6-84.8-49.6-52.8 0-96 43.2-96 96 0 36.8 20.8 68.8 49.6 84.8v638.4H211.2c-16-30.4-48-49.6-84.8-49.6s-68.8 20.8-84.8 49.6H-1.6v91.2h43.2c16 30.4 48 49.6 84.8 49.6s68.8-20.8 84.8-49.6h729.6V212.8c16-9.6 30.4-22.4 38.4-38.4h43.2V83.2h-41.6zM896 176c-22.4 0-40-14.4-46.4-33.6-1.6-4.8-1.6-9.6-1.6-14.4s1.6-9.6 1.6-14.4c4.8-16 16-27.2 32-32 4.8-1.6 9.6-1.6 14.4-1.6s9.6 1.6 14.4 1.6c19.2 6.4 33.6 24 33.6 46.4 0 27.2-20.8 48-48 48z"/></svg>