<svg enable-background="new 0 0 15 15" viewBox="0 0 15 15" xmlns="http://www.w3.org/2000/svg"><path d="m0 0h15v15h-15z" fill="none"/><path d="m5.8 13h-2.2c-.4 0-.8-.2-1.1-.5s-.5-.7-.5-1.1v-7.8c0-.4.2-.8.5-1.1s.7-.5 1.1-.5h2.2c.3 0 .5.2.5.5s-.2.5-.5.5h-2.2c-.1 0-.3.1-.4.2s-.2.3-.2.4v7.7c0 .2.1.3.2.4.1.2.3.3.4.3h2.2c.3 0 .5.2.5.5s-.2.5-.5.5z"/><path d="m9.7 10.8c-.1 0-.3 0-.4-.1-.2-.2-.2-.5 0-.7l2.4-2.4-2.3-2.5c-.2-.2-.2-.5 0-.7s.5-.2.7 0l2.8 2.8c.2.2.2.5 0 .7l-2.8 2.8c-.1 0-.3.1-.4.1z"/><path d="m12.5 8h-6.7c-.2 0-.5-.2-.5-.5s.3-.5.5-.5h6.6c.3 0 .6.2.6.5s-.3.5-.5.5z"/></svg>