<svg id="Layer_1" data-name="Layer 1" xmlns="http://www.w3.org/2000/svg" viewBox="0 0 23.95 23.95"><defs><style>.cls-1,.cls-2{fill:none;}.cls-2{stroke:#000;stroke-linecap:round;stroke-linejoin:round;stroke-width:2px;}</style></defs><rect class="cls-1" width="23.95" height="23.95"/><path class="cls-2" d="M7.22,17.7a5.71,5.71,0,0,1-3.49-5.24v-4A5.71,5.71,0,0,1,9.42,2.75h5.16a5.71,5.71,0,0,1,5.69,5.69v4a5.72,5.72,0,0,1-3.38,5.2" transform="translate(-0.02 -0.02)"/><line class="cls-2" x1="9.49" y1="18.01" x2="9.49" y2="21.23"/><line class="cls-2" x1="11.94" y1="18.01" x2="11.94" y2="21.23"/><line class="cls-2" x1="14.47" y1="18.01" x2="14.47" y2="21.23"/><path class="cls-2" d="M8.85,14.38a1.48,1.48,0,0,1-1.46-1.5v-3a1.46,1.46,0,1,1,2.92,0v3A1.48,1.48,0,0,1,8.85,14.38Z" transform="translate(-0.02 -0.02)"/><path class="cls-2" d="M15.11,14.38a1.5,1.5,0,0,1-1.5-1.5v-3a1.5,1.5,0,0,1,3,0v3A1.5,1.5,0,0,1,15.11,14.38Z" transform="translate(-0.02 -0.02)"/></svg>